<svg width="19" height="18" viewBox="0 0 19 18" fill="none" xmlns="http://www.w3.org/2000/svg">
<path d="M0.75 9.00865C0.75 4.03331 4.77944 0 9.75 0C14.7206 0 18.75 4.03331 18.75 9.00865C18.75 13.7949 15.021 17.7094 10.3125 18V11.5423H12.2812C12.7472 11.5423 13.125 11.1642 13.125 10.6978C13.125 10.2313 12.7472 9.85322 12.2812 9.85322H10.3125V7.60105C10.3125 7.45317 10.3416 7.30674 10.3981 7.17012C10.4547 7.0335 10.5375 6.90936 10.642 6.80479C10.7465 6.70023 10.8705 6.61728 11.007 6.56069C11.1435 6.5041 11.2898 6.47497 11.4375 6.47497H12.2812C12.7472 6.47497 13.125 6.09685 13.125 5.63041C13.125 5.16397 12.7472 4.78585 12.2812 4.78585H11.4375C11.0682 4.78585 10.7024 4.85866 10.3612 5.00014C10.02 5.14162 9.70993 5.34899 9.44876 5.6104C9.1876 5.87182 8.98043 6.18216 8.83909 6.52372C8.69775 6.86528 8.625 7.23135 8.625 7.60105V9.85322H7.21875C6.75276 9.85322 6.375 10.2313 6.375 10.6978C6.375 11.1642 6.75276 11.5423 7.21875 11.5423H8.625V17.9476C4.1854 17.3935 0.75 13.6026 0.75 9.00865Z" fill="black"/>
</svg>
