<svg width="18" height="16" viewBox="0 0 18 16" fill="none" xmlns="http://www.w3.org/2000/svg">
<path fill-rule="evenodd" clip-rule="evenodd" d="M1.95666 0C1.29024 0 0.75 0.508464 0.75 1.13569V14.8643C0.75 15.4915 1.29024 16 1.95667 16H16.5433C17.2098 16 17.75 15.4915 17.75 14.8643V1.13569C17.75 0.508465 17.2098 0 16.5433 0H1.95666ZM4.56572 4.96882C5.3802 4.96882 6.04047 4.34739 6.04047 3.58082C6.04047 2.81425 5.3802 2.19282 4.56572 2.19282C3.75124 2.19282 3.09097 2.81425 3.09097 3.58082C3.09097 4.34739 3.75124 4.96882 4.56572 4.96882ZM7.39108 5.99459H9.83521V7.0484C9.83521 7.0484 10.4985 5.79993 12.3031 5.79993C13.9128 5.79993 15.2464 6.5463 15.2464 8.8213V13.6186H12.7136V9.40261C12.7136 8.06058 11.9523 7.91297 11.3722 7.91297C10.1683 7.91297 9.96223 8.89031 9.96223 9.57767V13.6186H7.39108V5.99459ZM5.8513 5.9946H3.28015V13.6186H5.8513V5.9946Z" fill="black"/>
</svg>
